# xmcd
#
# Track frame offsets:
#	150
#	22338
#	41242
#	63943
#	76086
#	133269
#	167025
#	191385
#
# Disc length: 2843 seconds
#
# Revision: 0
# Processed by: cddbd v1.5.2PL0 Copyright (c) Steve Scherf et al.
# Submitted via: EasyCDDAExtractor 2010.6.0.0
#
DISCID=6a0b1908
DTITLE=Vladimir Vysotsky - 13 Лекция (На Концертах, №13)
DYEAR=2002
DGENRE=Vocal
TTITLE0=День Святого Никогда (Б. Брехт, Перевод Б. Слуцкого, Музыка А. Василье
TTITLE0=ва, Б. ...
TTITLE1=Песня Акына (Стихи А. Вознесенского)
TTITLE2=Солдаты Группы 'Центр'
TTITLE3=Утренняя Гимнастика
TTITLE4=Вратарь
TTITLE5=Попурри На Темы Из Кинофильмов
TTITLE6=Песня О Двух Погибших Лебедях
TTITLE7=Песня Про Джеймса Бонда, Агента 007
EXTD=
EXTT0=
EXTT1=
EXTT2=
EXTT3=
EXTT4=
EXTT5=
EXTT6=
EXTT7=
PLAYORDER=
